<svg width="583" height="516" viewBox="0 0 583 516" fill="none" xmlns="http://www.w3.org/2000/svg">
<path fill-rule="evenodd" clip-rule="evenodd" d="M155.035 369.38C94.0122 386.376 76.8202 402.518 68.7909 411.203C53.0633 428.22 27.5257 428.22 11.7957 411.203C-3.9319 394.186 -3.9319 366.554 11.7957 349.534C22.884 337.539 46.6409 308.715 145.498 282.476C146.407 243.184 153.226 207.019 165.947 173.977C179.652 138.39 198.838 107.581 223.503 81.552C248.171 55.5201 277.101 35.4203 310.296 21.2527C343.488 7.08249 379.576 0 418.555 0C455.708 0 486.312 6.58832 510.371 19.7703C534.428 32.9496 552.548 50.082 564.728 71.1727C576.911 92.2607 583 114.666 583 138.39C583 171.339 575.843 200.171 561.531 224.883C547.217 249.597 527.423 270.521 502.149 287.656C476.872 304.788 447.181 318.464 413.073 328.679C378.967 338.893 342.118 345.976 302.53 349.931C298.265 350.59 294.916 350.92 292.481 350.92H285.171C294.307 367.393 308.162 379.749 326.739 387.987C345.315 396.225 369.526 400.343 399.37 400.343H504.432L487.987 516H390.234C342.727 516 300.551 508.256 263.703 492.768C226.854 477.283 197.924 452.901 176.912 419.619C167.523 404.748 160.23 388 155.035 369.38ZM273.295 257.012H277.406C278.928 257.012 280.909 256.682 283.345 256.021C318.06 250.75 346.533 244.324 368.765 236.747C390.995 229.168 408.353 220.93 420.838 212.033C433.326 203.136 442.003 194.239 446.876 185.345C451.748 176.448 454.186 168.045 454.186 160.137C454.186 148.275 449.769 137.896 440.937 128.999C432.106 120.102 418.555 115.655 400.283 115.655C377.749 115.655 356.887 122.74 337.701 136.907C318.516 151.075 303.139 168.869 291.567 190.286C279.993 211.704 273.904 233.286 273.295 255.033V257.012Z" fill="#FFB72D"/>
</svg>
